<svg xmlns="http://www.w3.org/2000/svg" viewBox="0 0 32 32" fill="none">
  <defs>
    <linearGradient id="bg" x1="0" y1="0" x2="32" y2="32" gradientUnits="userSpaceOnUse">
      <stop offset="0%" stop-color="#1e3a5f"/>
      <stop offset="100%" stop-color="#0f172a"/>
    </linearGradient>
    <linearGradient id="text" x1="0" y1="0" x2="32" y2="32" gradientUnits="userSpaceOnUse">
      <stop offset="0%" stop-color="#60a5fa"/>
      <stop offset="100%" stop-color="#a78bfa"/>
    </linearGradient>
  </defs>
  <rect width="32" height="32" rx="7" fill="url(#bg)"/>
  <!-- C -->
  <path d="M6 10 C6 8 8 7 10 7 L13 7 L13 9.5 L10.5 9.5 C9.5 9.5 8.5 10.2 8.5 11.5 L8.5 20.5 C8.5 21.8 9.5 22.5 10.5 22.5 L13 22.5 L13 25 L10 25 C8 25 6 24 6 22 Z" fill="url(#text)"/>
  <!-- N -->
  <path d="M16 7 L16 25 L18.5 25 L18.5 12 L24 25 L26 25 L26 7 L23.5 7 L23.5 20 L18 7 Z" fill="url(#text)"/>
</svg>
